<?xml version="1.0" encoding="UTF-8"?>
<svg id="Capa_2" data-name="Capa 2" xmlns="http://www.w3.org/2000/svg" viewBox="0 0 157 93.36">
  <defs>
    <style>
      .cls-1 {
        fill: #f9ddaf;
        stroke-width: 0px;
      }
    </style>
  </defs>
  <g id="Capa_1-2" data-name="Capa 1">
    <path class="cls-1" d="m0,0h157v93.36H0V0Zm15.93,7.1c.37,1.21.36,1.8.64,2.01,18.57,14.49,37.15,28.96,55.75,43.41,4.62,3.59,8.85,2.71,13.28-.78,17.41-13.7,34.96-27.22,52.42-40.86,1.09-.85,1.88-2.09,3.37-3.79H15.93Zm-1.81,79.35h128.64c-15.68-12.21-30.08-23.43-45.19-35.2-12.66,14.62-25.77,14.5-38.23,0-15.16,11.8-29.46,22.92-45.22,35.19ZM7.36,11.41v71c15.74-12.25,30.49-23.74,45.65-35.54C37.57,34.87,22.88,23.46,7.36,11.41Zm142.29-.1c-15.67,12.18-30.43,23.66-45.8,35.61,15.43,11.93,30.18,23.34,45.8,35.43V11.31Z"/>
  </g>
</svg>