<?xml version="1.0" encoding="UTF-8"?>
<svg id="Capa_2" data-name="Capa 2" xmlns="http://www.w3.org/2000/svg" viewBox="0 0 104.64 104">
  <defs>
    <style>
      .cls-1 {
        fill: #75505f;
        stroke-width: 0px;
      }
    </style>
  </defs>
  <g id="Capa_1-2" data-name="Capa 1">
    <g>
      <path class="cls-1" d="m33.19,50.07c-1.02-1.36-2.16-2.66-3.05-4.1-3.67-5.94-5.11-12.22-2.29-18.92,2.71-6.44,10.16-10.65,16.61-9.53,2.63.45,4.84,1.75,6.81,3.49.34.29.67.59,1.07.94.61-.53,1.17-1.04,1.77-1.51,5.62-4.41,12.37-4.15,18.19.7,5.64,4.7,7.46,12.3,4.77,19.69-1.59,4.36-4.13,8.05-7.68,11.04-.31.26-.59.54-1.1,1.03,2.32.29,4.42.34,6.33-.47,2.99-1.27,5.91-2.73,8.77-4.27,2.23-1.2,4.31-2.69,6.49-3.99,2.46-1.48,5.09-.78,6.52,1.69,2.46,4.24,4.9,8.48,7.34,12.73,1.64,2.85,1.05,5.26-1.72,6.94-6.77,4.13-13.55,8.25-20.4,12.42.27,4.2-.16,5.17-3.29,7.25.79,2.11.57,4.15-.89,5.95-1.49,1.83-3.5,2.31-5.74,1.96-1.81,4.83-4.38,6.26-8.59,4.73-.15.44-.29.9-.46,1.34-1.26,3.4-4.99,4.77-8.15,2.99-1.77-1-3.52-2.02-5.37-3.08-.42.7-.8,1.31-1.16,1.93-1.14,1.98-2.84,3.09-5.13,2.97-2.28-.12-3.86-1.38-4.77-3.5-.14-.33-.57-.75-.88-.76-2.99-.08-4.8-1.62-5.65-4.4-4.19-.42-5.7-1.73-6.31-5.58-2.46-.29-4.41-1.44-5.2-3.98-.78-2.51.61-4.46,1.86-6.49-3.9-4.53-7.74-9.05-13.12-11.9-2.12-1.12-4.18-2.37-6.24-3.61-2.63-1.59-3.25-4.05-1.7-6.75,2.86-5,5.74-9.98,8.64-14.96,1.49-2.56,4-3.25,6.64-1.71,3.61,2.1,7.13,4.34,10.72,6.46,2.05,1.21,4.16,2.31,6.24,3.46.04-.07.08-.13.11-.2Zm7.83,6.31c-6.22-1.33-11.61-4.3-16.91-7.47-3.15-1.89-6.26-3.84-9.41-5.72-1.34-.8-1.88-.62-2.65.7-2.82,4.86-5.63,9.73-8.44,14.6-.78,1.36-.65,1.83.69,2.64,1.17.7,2.34,1.4,3.54,2.04,5.17,2.76,9.83,6.15,13.55,10.74.64.8,1.39,1.51,2.18,2.36.35-.56.6-.99.86-1.39,2.31-3.54,6.97-3.58,9.25-.03.41.64.78.66,1.43.55,2.97-.51,5.53,1.25,6.18,4.19.1.43.16.87.24,1.28,4.06.72,5.37,2.42,5.34,6.83,4.06,1.01,6,4.38,3.94,8.67,1.63.94,3.27,1.89,4.92,2.83,1.62.92,3,.67,3.77-.66.76-1.32.28-2.69-1.28-3.62-1.36-.81-2.76-1.56-4.12-2.39-.92-.56-1.41-1.38-.77-2.4.59-.95,1.47-.91,2.38-.37.62.37,1.26.72,1.89,1.09,2.31,1.34,4.61,2.71,6.94,4.02,1.34.75,2.72.4,3.43-.79.75-1.25.35-2.65-.99-3.5-.23-.15-.47-.27-.71-.4-2.79-1.6-5.58-3.2-8.37-4.82-1.38-.8-1.77-1.65-1.25-2.58.53-.96,1.44-1.03,2.82-.23,4.04,2.34,8.07,4.69,12.12,7.02,1.43.82,2.82.53,3.57-.69.79-1.28.38-2.7-1.06-3.58-1.36-.82-2.74-1.6-4.12-2.39-2.59-1.5-5.19-2.98-7.77-4.49-.87-.51-1.41-1.26-.82-2.26.55-.93,1.4-1.07,2.35-.53.51.29,1.02.58,1.54.88,3.19,1.83,6.37,3.65,9.55,5.49.98.57,1.91.52,2.78-.16.88-.69,1.23-1.67.81-2.66-.28-.65-.88-1.28-1.5-1.65-5.74-3.38-11.55-6.66-17.27-10.06-1.8-1.07-3.64-1.78-5.71-1.95-.9-.07-1.82-.17-2.69-.41-.83-.22-1.3.05-1.85.66-3.97,4.43-9.02,5.49-14.41,3.07-1.85-.83-2.59-2.31-2.12-4.29.42-1.8,1.44-3.25,2.85-4.37,1.66-1.32,3.44-2.47,5.29-3.79Zm34.06-22.11c-.03-.66-.03-1.21-.1-1.75-.68-5.86-4.06-9.61-9.47-11.46-4.95-1.69-8.7.56-11.81,4.27-.95,1.13-1.88,1.07-2.9-.15-2.84-3.38-6.3-5.44-10.84-4.35-4.13.99-7.28,3.46-9.12,7.34-2.26,4.77-1.43,9.45.74,14.02,2.06,4.32,5.55,7.31,9.33,10.06,1.19.87,2.41,1.52,3.86,1.31,1.27-.19,2.55-.5,3.73-1,4.15-1.76,8.48-2.86,12.83-1.41,2.58.86,4.19.19,5.84-1.49.38-.39.82-.72,1.21-1.1,4.07-3.95,6.51-8.66,6.71-14.29Zm26.51,27.31c-.21-.5-.33-.84-.5-1.15-2.42-4.21-4.84-8.41-7.28-12.61-.79-1.37-1.27-1.5-2.62-.68-2.94,1.79-5.85,3.65-8.8,5.43-6.2,3.74-12.72,4.89-19.66,2.27-5.15-1.94-9.99-.92-14.66,1.58-2.2,1.17-4.37,2.39-6.53,3.62-.98.56-1.99,1.12-2.84,1.86-.9.79-1.69,1.75-2.41,2.72-.54.74-.23,1.27.65,1.63,3.62,1.49,7.06.89,9.41-2.02,2.02-2.49,4.08-2.86,6.79-2.05.09.03.18.02.27.04,2.18.52,4.43.52,6.49,1.76,6.14,3.69,12.41,7.16,18.61,10.75.72.42,1.27.45,1.97.02,6.68-4.02,13.38-8.02,20.05-12.05.42-.25.7-.75,1.04-1.13Zm-70.65,30.53c.28-.16,1.04-.32,1.32-.78,1.99-3.29,3.94-6.6,5.76-9.98.55-1.02-.04-2.04-1.08-2.62-.93-.52-2.17-.24-2.74.73-1.87,3.15-3.72,6.31-5.49,9.52-.76,1.38.35,3.08,2.23,3.13Zm13.03-6.04c-.56-.58-1.05-1.4-1.75-1.72-1.04-.47-2.04-.05-2.65,1-1.48,2.54-2.97,5.07-4.41,7.64-.78,1.38-.45,2.61.75,3.26,1.17.63,2.26.25,3.05-1.1,1.4-2.37,2.8-4.75,4.18-7.14.29-.5.46-1.06.84-1.94Zm-18.31.36c.26-.18.98-.44,1.3-.94,1.41-2.27,2.75-4.58,4.04-6.93.58-1.06.16-2.28-.8-2.84-.96-.55-2.28-.35-2.89.65-1.42,2.32-2.8,4.66-4.06,7.07-.74,1.4.46,3.04,2.42,2.99Zm20.11,4.6c-.26.19-.98.5-1.32,1.04-1.15,1.78-2.19,3.64-3.21,5.5-.61,1.11-.23,2.3.81,2.94.98.6,2.22.42,2.87-.62,1.19-1.91,2.35-3.86,3.34-5.88.71-1.45-.47-3.03-2.49-2.98Z"/>
      <path class="cls-1" d="m53.9,5.93c0,1.36.01,2.71,0,4.07-.01,1.03-.43,1.8-1.58,1.79-1.13,0-1.57-.75-1.58-1.79,0-2.76,0-5.51,0-8.27,0-1.01.49-1.69,1.51-1.73,1.11-.04,1.62.67,1.64,1.73.02,1.4,0,2.8,0,4.2,0,0,0,0,0,0Z"/>
      <path class="cls-1" d="m35.42,15.83c-.32.36-.66,1.06-1.13,1.16-.54.12-1.5-.1-1.75-.5-1.6-2.52-3.08-5.12-4.53-7.73-.45-.82-.21-1.77.67-2.04.57-.18,1.69.05,1.96.48,1.59,2.47,3.01,5.05,4.48,7.6.13.23.16.51.3,1.02Z"/>
      <path class="cls-1" d="m83.55,29.86c-.31-.3-1.06-.7-1.13-1.19-.08-.57.28-1.48.75-1.8,1.72-1.16,3.57-2.15,5.37-3.19.74-.43,1.46-1.03,2.26-1.21.56-.13,1.53.14,1.82.57.28.42.18,1.64-.17,1.86-2.66,1.71-5.43,3.26-8.17,4.84-.11.06-.26.04-.73.11Z"/>
      <path class="cls-1" d="m69.38,14.98c.21-.52.29-.83.44-1.1,1.35-2.35,2.7-4.71,4.08-7.04.68-1.14,1.87-1.49,2.55-.68.36.42.61,1.35.39,1.77-1.39,2.63-2.88,5.22-4.48,7.74-.27.42-1.27.62-1.86.51-.45-.08-.78-.81-1.12-1.2Z"/>
      <path class="cls-1" d="m23.16,29.25c.03,1.35-1.21,2.24-2.2,1.7-2.66-1.45-5.3-2.96-7.84-4.6-.4-.26-.55-1.41-.36-1.99.27-.78,1.15-1.06,1.95-.61,2.56,1.44,5.11,2.92,7.63,4.44.42.25.64.81.83,1.06Z"/>
      <path class="cls-1" d="m49.22,40.78c3.36-3.39,6.58-6.63,9.8-9.87.22-.22.44-.45.67-.67.75-.72,1.58-.98,2.38-.14.77.81.57,1.66-.17,2.4-2.52,2.54-5.05,5.06-7.58,7.59-1.25,1.25-2.49,2.5-3.75,3.74-.98.97-1.68.99-2.67.03-1.75-1.71-3.46-3.45-5.2-5.17-.74-.74-.97-1.54-.26-2.4.62-.74,1.65-.68,2.5.16,1.38,1.37,2.73,2.77,4.27,4.34Z"/>
    </g>
  </g>
</svg>