<?xml version="1.0" encoding="UTF-8"?>
<svg id="Capa_2" data-name="Capa 2" xmlns="http://www.w3.org/2000/svg" viewBox="0 0 42.1 42.11">
  <defs>
    <style>
      .cls-1 {
        fill: #524326;
        stroke-width: 0px;
      }
    </style>
  </defs>
  <g id="Capa_1-2" data-name="Capa 1">
    <g>
      <path class="cls-1" d="m21.05,3.79c5.62,0,6.29.02,8.51.12,2.05.09,3.17.44,3.91.73.98.38,1.68.84,2.42,1.57.74.74,1.19,1.44,1.57,2.42.29.74.63,1.86.73,3.91.1,2.22.12,2.89.12,8.51s-.02,6.29-.12,8.51c-.09,2.05-.44,3.17-.73,3.91-.38.98-.84,1.68-1.57,2.42-.74.74-1.44,1.19-2.42,1.57-.74.29-1.86.63-3.91.73-2.22.1-2.89.12-8.51.12s-6.29-.02-8.51-.12c-2.05-.09-3.17-.44-3.91-.73-.98-.38-1.68-.84-2.42-1.57-.74-.74-1.19-1.44-1.57-2.42-.29-.74-.63-1.86-.73-3.91-.1-2.22-.12-2.89-.12-8.51s.02-6.29.12-8.51c.09-2.05.44-3.17.73-3.91.38-.98.84-1.68,1.57-2.42.74-.74,1.44-1.19,2.42-1.57.74-.29,1.86-.63,3.91-.73,2.22-.1,2.89-.12,8.51-.12m0-3.79c-5.72,0-6.43.02-8.68.13-2.24.1-3.77.46-5.11.98-1.38.54-2.56,1.26-3.73,2.43-1.17,1.17-1.89,2.34-2.43,3.73-.52,1.34-.88,2.87-.98,5.11-.1,2.25-.13,2.96-.13,8.68s.02,6.43.13,8.68c.1,2.24.46,3.77.98,5.11.54,1.38,1.26,2.56,2.43,3.73,1.17,1.17,2.34,1.89,3.73,2.43,1.34.52,2.87.88,5.11.98,2.25.1,2.96.13,8.68.13s6.43-.02,8.68-.13c2.24-.1,3.77-.46,5.11-.98,1.38-.54,2.56-1.26,3.73-2.43,1.17-1.17,1.89-2.34,2.43-3.73.52-1.34.88-2.87.98-5.11.1-2.25.13-2.96.13-8.68s-.02-6.43-.13-8.68c-.1-2.24-.46-3.77-.98-5.11-.54-1.38-1.26-2.56-2.43-3.73-1.17-1.17-2.34-1.89-3.73-2.43-1.34-.52-2.87-.88-5.11-.98-2.25-.1-2.96-.13-8.68-.13"/>
      <path class="cls-1" d="m21.05,10.24c-5.97,0-10.81,4.84-10.81,10.81s4.84,10.81,10.81,10.81,10.81-4.84,10.81-10.81-4.84-10.81-10.81-10.81m0,17.83c-3.88,0-7.02-3.14-7.02-7.02s3.14-7.02,7.02-7.02,7.02,3.14,7.02,7.02-3.14,7.02-7.02,7.02"/>
      <path class="cls-1" d="m34.82,9.81c0,1.4-1.13,2.53-2.53,2.53s-2.53-1.13-2.53-2.53,1.13-2.53,2.53-2.53,2.53,1.13,2.53,2.53"/>
    </g>
  </g>
</svg>