<?xml version="1.0" encoding="UTF-8"?>
<svg id="Capa_2" data-name="Capa 2" xmlns="http://www.w3.org/2000/svg" viewBox="0 0 108.73 108.73">
  <defs>
    <style>
      .cls-1 {
        fill: #f9ddaf;
        stroke-width: 0px;
      }
    </style>
  </defs>
  <g id="Capa_1-2" data-name="Capa 1">
    <g>
      <path class="cls-1" d="m53.49,38.65c0,3.99-.03,7.97.04,11.96.01.63.44,1.28.77,1.87.68,1.25,1.4,2.49,2.15,3.7.35.57.7,1.26,1.23,1.57,4.4,2.61,8.86,5.13,13.28,7.72,1.77,1.04,2.52,2.66,2.2,4.41-.33,1.76-1.66,3.28-3.39,3.34-1.16.04-2.47-.31-3.5-.87-4.26-2.34-8.42-4.85-12.67-7.22-.62-.35-1.56-.44-2.27-.28-3.34.77-6.61-.52-8.27-3.4-1.68-2.91-1.18-6.37,1.16-8.88.5-.53.89-1.4.89-2.11.06-7.51.04-15.01.04-22.52,0-.67,0-1.35.11-2.01.36-2.31,2.16-3.73,4.48-3.58,2.08.14,3.69,1.78,3.73,4.02.06,4.09.02,8.18.02,12.27,0,0,.01,0,.02,0Zm-4.11,22.26c1.68-.01,3.04-1.36,3.07-3.05.03-1.75-1.39-3.17-3.13-3.15-1.67.02-3.05,1.39-3.07,3.06-.03,1.73,1.39,3.16,3.13,3.15Z"/>
      <path class="cls-1" d="m54.37,108.73C24.39,108.73,0,84.34,0,54.37S24.39,0,54.37,0s54.37,24.39,54.37,54.37-24.39,54.37-54.37,54.37Zm0-98.74c-24.46,0-44.37,19.9-44.37,44.37s19.91,44.37,44.37,44.37,44.37-19.9,44.37-44.37S78.83,9.99,54.37,9.99Z"/>
    </g>
  </g>
</svg>