<?xml version="1.0" encoding="UTF-8"?>
<svg id="Capa_2" data-name="Capa 2" xmlns="http://www.w3.org/2000/svg" viewBox="0 0 42.49 42.5">
  <defs>
    <style>
      .cls-1 {
        fill: #524326;
        fill-rule: evenodd;
        stroke-width: 0px;
      }
    </style>
  </defs>
  <g id="Capa_1-2" data-name="Capa 1">
    <g>
      <path class="cls-1" d="m42.48,20.17C42.19,8.98,32.98,0,21.63,0S1.28,8.78.79,19.79c0,.3-.02.61-.02.91,0,3.92,1.09,7.57,2.99,10.69l-3.76,11.1,11.55-3.67c2.99,1.64,6.43,2.58,10.08,2.58,11.52,0,20.86-9.27,20.86-20.7,0-.18,0-.35,0-.53Zm-20.85,17.93c-3.56,0-6.87-1.05-9.65-2.88l-6.74,2.15,2.19-6.46c-2.1-2.87-3.34-6.4-3.34-10.2,0-.57.03-1.13.09-1.69C5.04,10.2,12.54,3.3,21.63,3.3s16.78,7.08,17.48,16.04c.04.45.06.9.06,1.36,0,9.6-7.87,17.4-17.54,17.4Z"/>
      <path class="cls-1" d="m31.19,24.88c-.52-.25-3.03-1.48-3.5-1.65-.47-.18-.81-.25-1.15.25-.34.51-1.33,1.65-1.62,1.98-.3.34-.6.38-1.11.13-.51-.25-2.16-.78-4.11-2.52-1.51-1.34-2.55-3-2.84-3.51-.29-.51-.03-.78.22-1.03.23-.23.51-.6.77-.89.07-.09.13-.17.19-.24.12-.19.21-.36.32-.61.18-.34.09-.63-.04-.89-.13-.25-1.15-2.75-1.58-3.77-.42-1.02-.85-.84-1.15-.84s-.63-.05-.98-.05-.9.13-1.37.63c-.47.51-1.79,1.74-1.79,4.24,0,.59.11,1.17.26,1.73.52,1.79,1.63,3.26,1.83,3.52.25.33,3.53,5.62,8.73,7.67,5.2,2.02,5.2,1.35,6.14,1.26.94-.08,3.03-1.22,3.45-2.41.43-1.18.43-2.2.3-2.41-.13-.2-.47-.33-.98-.59Z"/>
    </g>
  </g>
</svg>