<?xml version="1.0" encoding="UTF-8"?>
<svg id="Capa_2" data-name="Capa 2" xmlns="http://www.w3.org/2000/svg" viewBox="0 0 104.85 91.5">
  <defs>
    <style>
      .cls-1 {
        stroke-width: 1.5px;
      }

      .cls-1, .cls-2, .cls-3 {
        stroke: #75505f;
        stroke-miterlimit: 10;
      }

      .cls-1, .cls-3 {
        fill: #75505f;
      }

      .cls-2, .cls-4 {
        fill: #e8e2e5;
      }

      .cls-2, .cls-3 {
        stroke-width: 2px;
      }

      .cls-4 {
        stroke-width: 0px;
      }
    </style>
  </defs>
  <g id="Capa_1-2" data-name="Capa 1">
    <g>
      <path class="cls-1" d="m84.07,36.33c4.09,0,7.83,0,11.58,0,5.68.02,8.44,2.75,8.44,8.38,0,9.65,0,19.3,0,28.94,0,5.5-2.8,8.29-8.28,8.32q-5.79.03-7.92,5.49c-1.52,3.88-3.93,4.34-6.71,1.27-2.02-2.23-3.68-5.31-6.2-6.44-2.53-1.13-5.93-.31-8.94-.32-5.74-.01-11.49.01-17.23,0-5.23-.02-8.04-2.82-8.09-8.07-.05-4.57-.04-9.13-.06-13.7,0-.14-.08-.28-.32-1.01-.99.5-2.12.76-2.79,1.46-2.59,2.72-5.02,5.58-7.53,8.38-2.8,3.11-5.88,2.56-7.44-1.33-.9-2.25-1.68-4.56-2.73-6.75-.31-.66-1.3-1.34-2.02-1.39-2.49-.17-5-.04-7.51-.07-5.33-.08-9.48-4-9.51-9.33-.09-13.33-.09-26.66,0-39.99C.85,4.83,4.95.8,10.3.79c21.42-.05,42.85-.05,64.27,0,5.59.01,9.44,4.16,9.48,10.05.06,7.59.01,15.17.02,22.76,0,.8,0,1.6,0,2.73Z"/>
      <path class="cls-2" d="m42.53,3.27c-10.6,0-21.19-.02-31.79,0-4.58.01-7.42,2.86-7.43,7.45-.02,12.96-.02,25.91,0,38.87.01,4.61,2.81,7.36,7.47,7.43,2.65.04,5.3.1,7.95,0,1.64-.07,2.58.47,3.14,2.06.92,2.64,2,5.22,3.06,7.81.84,2.06,1.65,2.23,3.15.6,2.64-2.87,5.29-5.74,7.79-8.73,1.12-1.33,2.33-1.75,4.01-1.74,11.26.06,22.52.05,33.78.03,5.22-.01,7.89-2.7,7.9-7.9.01-12.66.02-25.32,0-37.98,0-5.21-2.69-7.88-7.89-7.88-10.38-.01-20.75,0-31.13,0Z"/>
      <path class="cls-2" d="m84.64,88.87c1.19-2.96,2.19-5.23,3.01-7.57.47-1.32,1.21-1.86,2.6-1.81,2.06.08,4.12.06,6.18,0,3.36-.09,5.13-1.88,5.19-5.26.06-2.87.01-5.74.01-8.61,0-7.14.02-14.28-.01-21.41-.02-3.01-1.36-5.1-3.95-5.26-4.44-.27-8.92-.07-13.6-.07,0,3.45.01,6.75,0,10.05-.03,6.78-3.79,10.56-10.51,10.57-9.27,0-18.54,0-27.81,0-.79,0-1.57,0-2.6,0,0,4.8,0,9.34,0,13.88,0,4.47,1.65,6.12,6.13,6.13,7.95.01,15.89.11,23.83-.06,2.41-.05,3.99.74,5.43,2.55,1.77,2.22,3.76,4.26,6.09,6.87Z"/>
      <path class="cls-3" d="m41.88,16.01c6.29-4.93,13.33-4.48,17.61,1.26,3.13,4.2,3.38,8.86,1.45,13.61-2.7,6.63-8.31,10.22-14.23,13.57-3.33,1.89-6.17,2-9.54.04-5.02-2.91-9.87-5.88-13-10.97-2.17-3.54-2.9-7.36-2.09-11.45,1.62-8.27,12.6-13.31,19.81-6.07Z"/>
      <path class="cls-4" d="m59.63,25.36c-.04-.57-.06-1.08-.11-1.59-.42-4.05-3.18-7.34-7.06-8.42-3.87-1.08-6.6-.04-9.27,3.6-.92,1.25-1.75,1.26-2.54-.04-2.01-3.32-4.99-4.48-8.67-3.67-3.73.82-6.28,3.07-7.34,6.83-1.09,3.89-.18,7.44,1.98,10.7,3.56,5.39,9.01,8.29,14.69,10.83.39.17,1.05.12,1.42-.1,3.75-2.27,7.69-4.32,11.14-6.99,3.53-2.73,5.63-6.55,5.76-11.16Z"/>
    </g>
  </g>
</svg>