<?xml version="1.0" encoding="UTF-8"?>
<svg id="Capa_2" data-name="Capa 2" xmlns="http://www.w3.org/2000/svg" viewBox="0 0 86.68 115.99">
  <defs>
    <style>
      .cls-1 {
        fill: #f9ddaf;
        stroke-width: 0px;
      }
    </style>
  </defs>
  <g id="Capa_1-2" data-name="Capa 1">
    <path class="cls-1" d="m43.35,0c19.74.25,37.22,13.94,42.02,32.85,2.62,10.34,1.11,20.15-2.81,29.8-5.24,12.89-12.9,24.32-21.59,35.07-4.54,5.61-9.42,10.94-14.25,16.32-2.37,2.64-4.25,2.58-6.69.02-11.68-12.24-22.2-25.36-30.47-40.17-4.24-7.59-7.75-15.52-9.07-24.19-1.49-9.8.36-19.08,5.33-27.63C12.19,11.14,21.62,4.24,33.9,1.35c3.08-.72,6.29-.92,9.44-1.35Zm.04,65.3c11.89,0,21.62-9.7,21.67-21.59.05-11.96-9.72-21.76-21.67-21.76-11.89,0-21.62,9.7-21.67,21.59-.05,11.96,9.72,21.76,21.67,21.76Z"/>
  </g>
</svg>