<?xml version="1.0" encoding="UTF-8"?>
<svg id="Capa_2" data-name="Capa 2" xmlns="http://www.w3.org/2000/svg" viewBox="0 0 119.24 156.59">
  <defs>
    <style>
      .cls-1 {
        fill: #524326;
        stroke-width: 0px;
      }
    </style>
  </defs>
  <g id="Capa_1-2" data-name="Capa 1">
    <path class="cls-1" d="m60.38,90.47c-4.11-2.42-8.12-3.6-12.53-3.52-11.72.21-21.3,10.22-20.85,21.91.44,11.37,8.74,19.99,20.11,20.87,10.62.83,20.24-6.67,22.35-17.5.32-1.67.36-3.41.36-5.12.02-34.8.01-69.6.02-104.4q0-2.72,2.64-2.72c7.26,0,14.53,0,21.79,0,.72,0,1.44,0,2.21,0,1.4,13.83,8.96,21.42,22.77,22.9v26.4c-4.21.58-13.31-.66-22.53-5.13,0,.83,0,1.5,0,2.17,0,20.47,0,40.94,0,61.41,0,11.8-3.53,22.41-11.18,31.39-10.72,12.58-24.47,18.64-41.01,17.24-22.31-1.88-39.31-17.46-43.67-39.42-5.05-25.43,12.88-51.53,38.44-56.06,6.32-1.12,12.59-1.06,18.89.08,1.59.29,2.27.87,2.25,2.68-.11,8.77-.05,17.55-.05,26.8Z"/>
  </g>
</svg>