<?xml version="1.0" encoding="UTF-8"?>
<svg id="Capa_2" data-name="Capa 2" xmlns="http://www.w3.org/2000/svg" viewBox="0 0 92.64 91.44">
  <defs>
    <style>
      .cls-1 {
        fill: #e8e2e5;
        stroke-width: 0px;
      }
    </style>
  </defs>
  <g id="Capa_1-2" data-name="Capa 1">
    <g>
      <path class="cls-1" d="m57.75,36.08c2.94,7.3,4.48,14.83,3.46,22.72-1.29,10.04-5.88,18.28-13.97,24.42-3.9,2.96-8.3,4.61-13.31,4.11-4.58-.46-8.01-2.73-10.39-6.66-2.75-4.54-2.25-10.95.7-14.78,3.68-4.78,10.88-5.98,15.71-2.55.53.37,1.03.82,1.43,1.33.63.8.28,1.58-.73,1.77-3.28.63-4.99,3.92-3.82,7.07,1.15,3.11,5.17,4.73,8.28,3.51,3.76-1.47,5.69-5.71,4.34-9.57-1.5-4.28-4.57-7.06-8.69-8.7-4.18-1.67-8.45-1.7-12.81-.55-8.03,2.12-13.19,10.37-11.36,19.04,1.89,9,9.47,14.16,18.06,14.21,3.04.02,5.91-.73,8.72-1.88,7.17-2.92,12.64-7.91,17.11-14.08,4.11-5.67,7.02-11.9,8.21-18.85.83-4.85.61-9.7-.3-14.53-.7-3.73-2.02-7.25-3.6-10.67-2.32-5.01-5.68-9.3-9.57-13.17-3.44-3.43-7.23-6.41-11.53-8.69-6.75-3.57-13.9-5.56-21.56-4.46-7.99,1.14-14.64,4.7-18.84,11.9C.22,22.29-.76,27.96.6,33.97c1.66,7.33,6.11,12.58,12.44,16.34,7.03,4.17,14.73,5.23,22.73,4.73,3.68-.23,7.28-.97,10.76-2.17,2.31-.8,4.53-1.89,6.16-3.81,1.09-1.28,1.77-2.83,1.37-4.52-.33-1.38-1.36-2.72-2.74-3.17-1.49-.48-3.16.2-4.25,1.32-.76.79-1.29,1.76-1.72,2.76-.18.42-.28.98-.57,1.33-.32.38-.97.68-1.39.93-2.07,1.22-4.44,1.81-6.81,2.01-10.4.91-19.16-2.36-25.73-10.67-3.47-4.39-5.29-9.44-4.86-15.1.36-4.77,2.25-8.82,6.2-11.69,3.36-2.44,7.22-3.36,11.32-3.35,7.16.02,13.42,2.56,19.1,6.81,4.2,3.15,7.55,7.06,10.43,11.4,1.87,2.82,3.49,5.79,4.71,8.97Z"/>
      <path class="cls-1" d="m81.48,52.9c0-.21-.02-.42,0-.62,1.06-6.54.8-13.03-.89-19.44-2.24-8.5-7.01-15.32-13.98-20.6-1.8-1.36-3.75-2.54-5.67-3.73-.56-.35-1.26-.53-1.92-.64-.3-.05-.83.15-.94.39-.13.29,0,.77.16,1.1.16.32.49.57.79.8,4.06,3.06,7.69,6.56,10.62,10.73,2.03,2.88,3.66,5.96,4.95,9.25,3.87,9.91,3.65,19.97,1.37,30.13-1.04,4.63-2.54,9.09-4.8,13.29-.35.66-.6,1.41-.7,2.14-.06.41.17,1.12.47,1.26.38.18,1.11.08,1.43-.2,1.37-1.21,2.75-2.44,3.92-3.83,3.97-4.71,6.86-10.04,9.01-15.82,3.55-9.56,4.44-19.45,3.67-29.51-.37-4.8-1.12-9.57-1.69-14.36-.04-.37-.13-.75-.11-1.12.02-.43.2-.78.74-.76,2.37.1,4.34-2.21,4.64-4.3.34-2.41-.41-4.41-2.37-5.83-1.82-1.32-3.85-1.6-5.94-.63-2.42,1.13-3.77,4.04-3.16,6.9.57,2.65,1.26,5.28,1.87,7.92,1.83,7.97,2,16.03,1.41,24.13-.3,4.18-.96,8.31-2.28,12.31-.12.37-.21.76-.31,1.14-.1-.03-.21-.06-.31-.09Z"/>
    </g>
  </g>
</svg>