<?xml version="1.0" encoding="UTF-8"?>
<svg id="Capa_2" data-name="Capa 2" xmlns="http://www.w3.org/2000/svg" viewBox="0 0 103.03 101.7">
  <defs>
    <style>
      .cls-1 {
        fill: #f9ddaf;
        stroke-width: 0px;
      }
    </style>
  </defs>
  <g id="Capa_1-2" data-name="Capa 1">
    <g>
      <path class="cls-1" d="m38.81,40.13c-3.27,8.12-4.98,16.5-3.85,25.27,1.44,11.17,6.54,20.33,15.54,27.16,4.33,3.29,9.23,5.13,14.8,4.57,5.09-.52,8.91-3.03,11.56-7.41,3.05-5.05,2.5-12.18-.78-16.44-4.1-5.32-12.1-6.65-17.48-2.84-.59.42-1.15.92-1.59,1.48-.7.9-.31,1.76.81,1.97,3.65.7,5.55,4.36,4.25,7.87-1.28,3.46-5.74,5.26-9.21,3.9-4.18-1.63-6.33-6.35-4.83-10.64,1.66-4.76,5.09-7.85,9.67-9.67,4.65-1.85,9.4-1.89,14.25-.61,8.93,2.36,14.66,11.53,12.64,21.17-2.1,10.01-10.54,15.75-20.09,15.8-3.38.02-6.57-.82-9.7-2.09-7.98-3.25-14.06-8.8-19.03-15.66-4.57-6.31-7.81-13.24-9.13-20.97-.93-5.4-.67-10.79.33-16.16.78-4.14,2.24-8.06,4.01-11.86,2.58-5.58,6.31-10.34,10.64-14.65,3.83-3.81,8.04-7.13,12.83-9.66,7.51-3.97,15.46-6.18,23.98-4.96,8.88,1.27,16.28,5.22,20.96,13.24,3.43,5.87,4.52,12.18,3,18.86-1.85,8.15-6.8,13.99-13.84,18.17-7.81,4.63-16.38,5.81-25.28,5.26-4.09-.26-8.1-1.08-11.96-2.42-2.57-.89-5.04-2.11-6.85-4.24-1.21-1.43-1.97-3.15-1.52-5.03.36-1.53,1.51-3.03,3.05-3.52,1.66-.53,3.52.22,4.73,1.47.85.87,1.44,1.96,1.91,3.07.2.46.31,1.09.63,1.47.36.42,1.08.76,1.55,1.04,2.3,1.35,4.93,2.01,7.57,2.24,11.57,1.01,21.31-2.62,28.62-11.87,3.86-4.88,5.88-10.5,5.4-16.8-.41-5.3-2.5-9.81-6.89-13-3.73-2.71-8.03-3.74-12.59-3.72-7.96.03-14.93,2.85-21.24,7.58-4.67,3.5-8.4,7.85-11.6,12.68-2.08,3.14-3.88,6.44-5.24,9.97Z"/>
      <path class="cls-1" d="m12.41,58.84c0-.23.03-.47-.01-.69-1.18-7.28-.89-14.49.99-21.62,2.49-9.46,7.79-17.03,15.54-22.91,2-1.52,4.17-2.83,6.3-4.15.62-.39,1.4-.59,2.13-.72.33-.06.93.17,1.04.43.14.32,0,.86-.17,1.22-.18.35-.55.64-.88.89-4.52,3.4-8.55,7.3-11.82,11.93-2.25,3.2-4.07,6.63-5.5,10.29-4.31,11.02-4.05,22.21-1.52,33.51,1.15,5.15,2.83,10.11,5.34,14.78.39.73.67,1.57.78,2.38.06.46-.19,1.24-.52,1.4-.42.2-1.24.09-1.59-.22-1.52-1.35-3.05-2.71-4.36-4.26-4.41-5.24-7.63-11.16-10.02-17.6-3.95-10.64-4.94-21.63-4.09-32.83.41-5.34,1.24-10.65,1.88-15.97.05-.42.15-.83.12-1.25-.03-.48-.22-.87-.83-.85C2.61,12.72.41,10.16.09,7.83-.29,5.16.54,2.93,2.73,1.35,4.76-.13,7.01-.44,9.33.64c2.69,1.25,4.19,4.5,3.51,7.68-.63,2.95-1.4,5.87-2.08,8.81-2.03,8.86-2.23,17.83-1.57,26.84.34,4.65,1.06,9.24,2.54,13.69.14.42.23.85.34,1.27.12-.03.23-.06.35-.1Z"/>
    </g>
  </g>
</svg>